- 
http://www.torrentkit.com  

who care what we share! support us by seeding back,
and don't forget to visit www.torrentkit.com
-[img]http://img201.imageshack.us/img201/1803/fastert.jpg[/img]

[color=blue][size=5][b]Faster 2010 DVDRip XVID AC3 HQ Hive-CM8[/b][/size][/color]



[b]Thx Hive

CM8 Doing It Right The First Time :D

Source DVD-R BOW
thx

Video: 720x304 @bitrate 1900 2pass
Audio: English AC3 5.1 @448
Sample: yes included[/b]
 
http://www.imdb.com/title/tt1433108/


General
Complete name                    : Faster.2010.DVDRip.XVID.AC3.HQ.Hive-CM8.avi
Format                           : AVI
Format/Info                      : Audio Video Interleave
File size                        : 1.61 GiB
Duration                         : 1h 37mn
Overall bit rate                 : 2 357 Kbps
Writing application              : Nandub v1.0rc2
Writing library                  : Nandub build 1853/release

Video
ID                               : 0
Format                           : MPEG-4 Visual
Format profile                   : Advanced Simple@L5
Format settings, BVOP            : Yes
Format settings, QPel            : Yes
Format settings, GMC             : No warppoints
Format settings, Matrix          : Default (H.263)
Muxing mode                      : Packed bitstream
Codec ID                         : XVID
Codec ID/Hint                    : XviD
Duration                         : 1h 37mn
Bit rate                         : 1 900 Kbps
Width                            : 720 pixels
Height                           : 304 pixels
Display aspect ratio             : 2.35:1
Frame rate                       : 23.976 fps
Color space                      : YUV
Chroma subsampling               : 4:2:0
Bit depth                        : 8 bits
Scan type                        : Progressive
Bits/(Pixel*Frame)               : 0.362
Stream size                      : 1.30 GiB (81%)
Writing library                  : XviD 1.2.1 (UTC 2008-12-04)

Audio
ID                               : 1
Format                           : AC-3
Format/Info                      : Audio Coding 3
Mode extension                   : CM (complete main)
Codec ID                         : 2000
Duration                         : 1h 37mn
Bit rate mode                    : Constant
Bit rate                         : 448 Kbps
Channel(s)                       : 6 channels
Channel positions                : Front: L C R, Side: L R, LFE
Sampling rate                    : 48.0 KHz
Bit depth                        : 16 bits
Stream size                      : 314 MiB (19%)
Alignment                        : Split accross interleaves
Interleave, duration             : 42 ms (1.00 video frame)
Interleave, preload duration     : 500 ms




Dwayne Johnson ... Driver
Mauricio Lopez ... Prison Guard
Jim Gaines ... Inmate (as James Gaines)
Tom Berenger ... Warden
Jan Hoag ... Receptionist
Courtney Gains ... Telemarketer
Billy Bob Thornton ... Cop
Michael Irby ... Vaquero
Josh Clark ... Uniform
Carla Gugino ... Cicero
Michael Blain-Rozgay ... TV Anchor
Mike Epps ... Roy Grone
Sidney S. Liufau ... Kenny (as Sid S. Liufau)
Oliver Jackson-Cohen ... Killer
Maggie Grace ... Lily
Xander Berkeley ... Sergeant Mallory

An ex-con sets out to avenge his brother's death after they were double-crossed 
during a heist years ago. During his campaign, however, he's tracked by a veteran cop 
and an egocentric hit man.  



[img]http://img189.imageshack.us/img189/9923/62433981.png[/img]
[img]http://img716.imageshack.us/img716/2232/faa.png[/img]
[img]http://img201.imageshack.us/img201/9663/faster.png[/img]
[img]http://img201.imageshack.us/img201/3016/ffaa.png[/img]
[img]http://img703.imageshack.us/img703/9909/ffafaa.png[/img]
[img]http://img163.imageshack.us/img163/7729/ffafafaa.png[/img]
[img]http://img40.imageshack.us/img40/6260/ffafafafaa.png[/img]
[img]http://img695.imageshack.us/img695/1217/ffafafafafaa.png[/img]





Greetz

iNK,LUSi,,MAGNET,CLASSiFiED,THC,LEGi0N,T0XiC,IMAGiNE,ViSiON,WBZ,FLAWL3SS,NOVA
Vik,Rapeseed,D2U,SAFC,goldadvance,MEMORY100,KaN1vE,Unevano,Pinnz,Wayne,Mr Hive
and all P2P groups 
Great Work Guys :D